<?xml version="1.0" encoding="UTF-8" standalone="no"?>
<svg width="71px" height="20px" viewBox="0 0 71 20" version="1.1" xmlns="http://www.w3.org/2000/svg" xmlns:xlink="http://www.w3.org/1999/xlink">
    <!-- Generator: Sketch 3.8.3 (29802) - http://www.bohemiancoding.com/sketch -->
    <title>LAYER logo</title>
    <desc>Created with Sketch.</desc>
    <defs></defs>
    <g id="DESIGN" stroke="none" stroke-width="1" fill="none" fill-rule="evenodd">
        <g id="DOCS-HOME" transform="translate(-672.000000, -28.000000)" fill="#313F48">
            <g id="LAYER-logo" transform="translate(672.000000, 28.000000)">
                <polyline id="Fill-1" points="25.4731294 16.46875 25.4731294 2.71 27.2113765 2.71 27.2113765 14.8504167 33.9096 14.8504167 33.9096 16.46875 25.4731294 16.46875"></polyline>
                <path d="M41.4368529,16.46875 L41.4368529,15.2358333 C40.7222588,16.2375 39.6793941,16.7 38.3471,16.7 C36.2409059,16.7 34.8697706,15.5633333 34.8697706,13.6554167 C34.8697706,11.2854167 36.9354529,10.8616667 38.2314118,10.6491667 C39.7370294,10.4179167 41.3980118,10.3020833 41.3980118,9.05 C41.3980118,8.00958333 40.2590882,7.68208333 39.2354353,7.68208333 C38.2314118,7.68208333 36.9555,8.00958333 36.0667471,8.72208333 L35.3333588,7.48916667 C36.3570118,6.7375 37.8058294,6.23625 39.3314941,6.23625 C41.5145353,6.23625 43.0209882,7.21916667 43.0209882,9.28083333 L43.0209882,16.46875 L41.4368529,16.46875 L41.4368529,16.46875 Z M41.3980118,11.05375 C40.7026294,11.5554167 39.5632882,11.7091667 38.5592647,11.8825 C37.3998765,12.0945833 36.5299176,12.38375 36.5299176,13.5591667 C36.5299176,14.7925 37.4775588,15.2741667 38.5981059,15.2741667 C40.0268765,15.2741667 41.3980118,14.48375 41.3980118,12.5375 L41.3980118,11.05375 L41.3980118,11.05375 Z" id="Fill-2"></path>
                <path d="M58.4939765,6.23625 C61.3135118,6.23625 63.0910176,8.26 63.0910176,10.9766667 C63.0910176,11.2854167 63.0722235,11.5554167 63.0530118,11.7475 L55.4422294,11.7475 C55.4610235,13.90625 56.8329941,15.1970833 58.7257706,15.1970833 C59.8454824,15.1970833 60.8691353,14.75375 61.5845647,13.8479167 L62.6846471,14.8504167 C61.7390941,15.9866667 60.3871706,16.7 58.6284588,16.7 C55.5194941,16.7 53.7236118,14.4645833 53.7236118,11.4970833 C53.7236118,8.52958333 55.5002824,6.23625 58.4939765,6.23625 L58.4939765,6.23625 Z M61.4112412,10.4754167 C61.2943,8.52958333 59.9808,7.64333333 58.4751824,7.64333333 C56.7553118,7.64333333 55.6155529,8.81875 55.4802353,10.4754167 L61.4112412,10.4754167 L61.4112412,10.4754167 Z" id="Fill-3"></path>
                <path d="M70.2223412,8.10583333 C69.9337471,7.9325 69.4501118,7.83583333 69.0253647,7.83583333 C67.5961765,7.83583333 66.3407294,8.9925 66.3407294,11.3233333 L66.3407294,16.46875 L64.7177529,16.46875 L64.7177529,6.46791667 L66.3407294,6.46791667 L66.3407294,7.9325 C66.9007941,6.96833333 68.0205059,6.275 69.2571588,6.275 C69.8560647,6.275 70.3580765,6.44791667 70.6095,6.62166667 L70.2223412,8.10583333" id="Fill-4"></path>
                <path d="M48.6441882,14.0283333 L45.9553765,6.57916667 L44.1018588,6.57916667 L47.6318118,16.1854167 L47.2099882,17.3325 C47.0345765,17.7516667 46.8420412,18.04 46.6361412,18.18875 C46.4369235,18.3325 46.0961235,18.4054167 45.6208412,18.4054167 L45.0002176,18.4054167 L45.0002176,19.8916667 L45.8133765,19.8916667 C46.7029647,19.8916667 47.428,19.66125 47.9676,19.2075 C48.2812529,18.9408333 48.5464588,18.5529167 48.7527765,18.0533333 L53.4475471,6.57916667 L51.6754706,6.57916667 L48.6441882,14.0283333" id="Fill-5"></path>
                <path d="M3.1506647,0 C1.41761783,0 0,1.41761783 0,3.15026185 L0,14.850141 C0,16.5823822 1.41761783,18 3.1506647,18 L14.8497381,18 C16.5823822,18 18,16.5823822 18,14.850141 L18,3.15026185 C18,1.41761783 16.5823822,0 14.8497381,0 L3.1506647,0 Z M16,14.8708308 C16,15.4829189 15.4829189,16 14.8704265,16 L12.0109157,16 C5.98948858,16 2,12.0109157 2,5.98948858 L2,3.12916919 C2,2.51748534 2.51788963,2 3.12957348,2 L14.8704265,2 C15.4829189,2 16,2.51748534 16,3.12916919 L16,14.8708308 L16,14.8708308 Z" id="Fill-6"></path>
            </g>
        </g>
    </g>
</svg>