<?xml version="1.0" encoding="UTF-8"?>
<svg width="24px" height="24px" viewBox="0 0 24 24" version="1.1" xmlns="http://www.w3.org/2000/svg" xmlns:xlink="http://www.w3.org/1999/xlink">
    <!-- Generator: Sketch 39.1 (31720) - http://www.bohemiancoding.com/sketch -->
    <title>LAYER logo</title>
    <desc>Created with Sketch.</desc>
    <defs></defs>
    <g id="App" stroke="none" stroke-width="1" fill="none" fill-rule="evenodd">
        <g id="App-Copy-2" transform="translate(-17.000000, -17.000000)" fill="#19A5E4">
            <g id="Group">
                <g id="Menu---Full-Copy">
                    <g id="LAYER-logo" transform="translate(17.000000, 17.000000)">
                        <path d="M4,0 C1.89015711,0 0,1.89015711 0,4 L0,20 C0,22.1098429 1.89015711,24 4,24 L20,24 C22.1098429,24 24,22.1098429 24,20 L24,4 C24,1.89015711 22.1098429,0 20,0 L4,0 Z M21,19.1052632 C21,20.3351815 20.3351815,21 19.1052632,21 C19.5476912,21 16.1705796,21 16.2631579,21 C8.12934246,21 3,15.8711773 3,7.73684211 C3,7.86528632 3,4.45178896 3,4.89473684 C3,3.6653383 3.6658581,3 4.89473684,3 L19.1052632,3 C20.3351815,3 21,3.6653383 21,4.89473684 L21,19.1052632 L21,19.1052632 Z" id="Fill-6"></path>
                    </g>
                </g>
            </g>
        </g>
    </g>
</svg>